<?xml version="1.0" encoding="UTF-8" standalone="no"?>
<!DOCTYPE svg PUBLIC "-//W3C//DTD SVG 1.1//EN" "http://www.w3.org/Graphics/SVG/1.1/DTD/svg11.dtd">
<svg version="1.1" xmlns="http://www.w3.org/2000/svg" xmlns:xlink="http://www.w3.org/1999/xlink" preserveAspectRatio="xMidYMid meet" viewBox="0 0 150 150" width="150" height="150"><defs><path d="M111.96 0.22L111.96 4.22L149.96 4.22L149.96 0.22L111.96 0.22Z" id="ayXCm4FBs"></path><path d="M111.96 0.22L111.96 4.22L149.96 4.22L149.96 0.22L111.96 0.22Z" id="a57SNsHgXw"></path><path d="M-0.04 146.22L-0.04 150.22L37.96 150.22L37.96 146.22L-0.04 146.22Z" id="c4578H2iQ"></path><path d="M-0.04 146.22L-0.04 150.22L37.96 150.22L37.96 146.22L-0.04 146.22Z" id="a116RGXuco"></path><path d="M3.96 112.22L-0.04 112.22L-0.04 150.22L3.96 150.22L3.96 112.22Z" id="aihvpb70G"></path><path d="M3.96 112.22L-0.04 112.22L-0.04 150.22L3.96 150.22L3.96 112.22Z" id="bNrfxkIxi"></path><path d="M145.96 38.22L149.96 38.22L149.96 0.22L145.96 0.22L145.96 38.22Z" id="c1q3gPyWDR"></path><path d="M145.96 38.22L149.96 38.22L149.96 0.22L145.96 0.22L145.96 38.22Z" id="hhB5TNjdw"></path><path d="M147.85 5.71L143.67 1.53L1 144.22L5.18 148.39L147.85 5.71Z" id="dxoapQZ9j"></path><path d="M143.68 148.39L147.86 144.21L5.17 1.54L0.99 5.71L143.68 148.39Z" id="asc0adNG1"></path><path d="M143.68 148.39L147.86 144.21L5.17 1.54L0.99 5.71L143.68 148.39Z" id="b2owT6cp6j"></path><path d="M143.68 148.39L147.86 144.21L5.17 1.54L0.99 5.71L143.68 148.39Z" id="afoES5PBJ"></path><path d="M145.96 150.22L149.96 150.22L149.96 112.22L145.96 112.22L145.96 150.22Z" id="a37ynEd4w"></path><path d="M145.96 150.22L149.96 150.22L149.96 112.22L145.96 112.22L145.96 150.22Z" id="fIy7SKmc2"></path><path d="M112 146L112 150L150 150L150 146L112 146Z" id="bIZrw3uBi"></path><path d="M112 146L112 150L150 150L150 146L112 146Z" id="a1wd4GOsP0"></path><path d="M4 1.5L0 1.5L0 39.5L4 39.5L4 1.5Z" id="c7MNytd0j"></path><path d="M4 1.22L0 1.22L0 39.22L4 39.22L4 1.22Z" id="b24Q0b69Fv"></path><path d="M0 0.69L0 4.69L38 4.69L38 0.69L0 0.69Z" id="e1d3HEHv1w"></path><path d="M0 0.69L0 4.69L38 4.69L38 0.69L0 0.69Z" id="b9eqfW3qVN"></path></defs><g><g><g><use xlink:href="#ayXCm4FBs" opacity="1" fill="#fefefe" fill-opacity="1"></use><g><use xlink:href="#ayXCm4FBs" opacity="1" fill-opacity="0" stroke="#fefefe" stroke-width="1" stroke-opacity="0"></use></g></g><g><use xlink:href="#a57SNsHgXw" opacity="1" fill="#fefefe" fill-opacity="0"></use><g><use xlink:href="#a57SNsHgXw" opacity="1" fill-opacity="0" stroke="#fefefe" stroke-width="1" stroke-opacity="1"></use></g></g><g><use xlink:href="#c4578H2iQ" opacity="1" fill="#fefefe" fill-opacity="1"></use><g><use xlink:href="#c4578H2iQ" opacity="1" fill-opacity="0" stroke="#fefefe" stroke-width="1" stroke-opacity="0"></use></g></g><g><use xlink:href="#a116RGXuco" opacity="1" fill="#fefefe" fill-opacity="0"></use><g><use xlink:href="#a116RGXuco" opacity="1" fill-opacity="0" stroke="#fefefe" stroke-width="1" stroke-opacity="1"></use></g></g><g><use xlink:href="#aihvpb70G" opacity="1" fill="#fefefe" fill-opacity="1"></use><g><use xlink:href="#aihvpb70G" opacity="1" fill-opacity="0" stroke="#fefefe" stroke-width="1" stroke-opacity="0"></use></g></g><g><use xlink:href="#bNrfxkIxi" opacity="1" fill="#fefefe" fill-opacity="0"></use><g><use xlink:href="#bNrfxkIxi" opacity="1" fill-opacity="0" stroke="#fefefe" stroke-width="1" stroke-opacity="1"></use></g></g><g><use xlink:href="#c1q3gPyWDR" opacity="1" fill="#fefefe" fill-opacity="1"></use><g><use xlink:href="#c1q3gPyWDR" opacity="1" fill-opacity="0" stroke="#fefefe" stroke-width="1" stroke-opacity="0"></use></g></g><g><use xlink:href="#hhB5TNjdw" opacity="1" fill="#fefefe" fill-opacity="0"></use><g><use xlink:href="#hhB5TNjdw" opacity="1" fill-opacity="0" stroke="#fefefe" stroke-width="1" stroke-opacity="1"></use></g></g><g><use xlink:href="#dxoapQZ9j" opacity="1" fill="#fefefe" fill-opacity="1"></use><g><use xlink:href="#dxoapQZ9j" opacity="1" fill-opacity="0" stroke="#fefefe" stroke-width="1" stroke-opacity="0"></use></g></g><g><use xlink:href="#asc0adNG1" opacity="1" fill="#fefefe" fill-opacity="0"></use><g><use xlink:href="#asc0adNG1" opacity="1" fill-opacity="0" stroke="#fefefe" stroke-width="1" stroke-opacity="1"></use></g></g><g><use xlink:href="#b2owT6cp6j" opacity="1" fill="#fefefe" fill-opacity="0"></use><g><use xlink:href="#b2owT6cp6j" opacity="1" fill-opacity="0" stroke="#fefefe" stroke-width="1" stroke-opacity="1"></use></g></g><g><use xlink:href="#afoES5PBJ" opacity="1" fill="#fefefe" fill-opacity="1"></use><g><use xlink:href="#afoES5PBJ" opacity="1" fill-opacity="0" stroke="#fefefe" stroke-width="1" stroke-opacity="0"></use></g></g><g><use xlink:href="#a37ynEd4w" opacity="1" fill="#fefefe" fill-opacity="0"></use><g><use xlink:href="#a37ynEd4w" opacity="1" fill-opacity="0" stroke="#fefefe" stroke-width="1" stroke-opacity="1"></use></g></g><g><use xlink:href="#fIy7SKmc2" opacity="1" fill="#fefefe" fill-opacity="1"></use><g><use xlink:href="#fIy7SKmc2" opacity="1" fill-opacity="0" stroke="#fefefe" stroke-width="1" stroke-opacity="0"></use></g></g><g><use xlink:href="#bIZrw3uBi" opacity="1" fill="#fefefe" fill-opacity="1"></use><g><use xlink:href="#bIZrw3uBi" opacity="1" fill-opacity="0" stroke="#fefefe" stroke-width="1" stroke-opacity="0"></use></g></g><g><use xlink:href="#a1wd4GOsP0" opacity="1" fill="#fefefe" fill-opacity="0"></use><g><use xlink:href="#a1wd4GOsP0" opacity="1" fill-opacity="0" stroke="#fefefe" stroke-width="1" stroke-opacity="1"></use></g></g><g><use xlink:href="#c7MNytd0j" opacity="1" fill="#fefefe" fill-opacity="1"></use><g><use xlink:href="#c7MNytd0j" opacity="1" fill-opacity="0" stroke="#fefefe" stroke-width="1" stroke-opacity="0"></use></g></g><g><use xlink:href="#b24Q0b69Fv" opacity="1" fill="#fefefe" fill-opacity="0"></use><g><use xlink:href="#b24Q0b69Fv" opacity="1" fill-opacity="0" stroke="#fefefe" stroke-width="1" stroke-opacity="1"></use></g></g><g><use xlink:href="#e1d3HEHv1w" opacity="1" fill="#fefefe" fill-opacity="1"></use><g><use xlink:href="#e1d3HEHv1w" opacity="1" fill-opacity="0" stroke="#fefefe" stroke-width="1" stroke-opacity="0"></use></g></g><g><use xlink:href="#b9eqfW3qVN" opacity="1" fill="#fefefe" fill-opacity="0"></use><g><use xlink:href="#b9eqfW3qVN" opacity="1" fill-opacity="0" stroke="#fefefe" stroke-width="1" stroke-opacity="1"></use></g></g></g></g></svg>