<?xml version="1.0" encoding="UTF-8" standalone="no"?>
<!DOCTYPE svg PUBLIC "-//W3C//DTD SVG 1.1//EN" "http://www.w3.org/Graphics/SVG/1.1/DTD/svg11.dtd">
<svg version="1.1" xmlns="http://www.w3.org/2000/svg" xmlns:xlink="http://www.w3.org/1999/xlink" preserveAspectRatio="xMidYMid meet" viewBox="0 0 150 150" width="150" height="150"><defs><path d="M74.96 4.22L149.96 4.22L149.96 0.22L74.96 0.22L74.96 4.22Z" id="cqsn9BPMM"></path><path d="M74.96 4.22L149.96 4.22L149.96 0.22L74.96 0.22L74.96 4.22Z" id="b4h0xqkMPe"></path><path d="M145.12 1.53L51.83 94.83L54.56 97.56L147.85 4.26L145.12 1.53Z" id="b7uLrqm7se"></path><path d="M145.12 1.53L51.83 94.83L54.56 97.56L147.85 4.26L145.12 1.53Z" id="ahWkY0A8W"></path><path d="M74.96 4.22L149.96 4.22L149.96 0.22L74.96 0.22L74.96 4.22Z" id="a2iPsOGAMo"></path><path d="M74.96 4.22L149.96 4.22L149.96 0.22L74.96 0.22L74.96 4.22Z" id="b9XOXMu38"></path><path d="M145.12 1.53L51.83 94.83L54.56 97.56L147.85 4.26L145.12 1.53Z" id="j56QcICD5e"></path><path d="M145.12 1.53L51.83 94.83L54.56 97.56L147.85 4.26L145.12 1.53Z" id="a4fpFa99b"></path><path d="M-0.04 150.22L149.96 150.22L149.96 146.22L-0.04 146.22L-0.04 150.22Z" id="a1ci1oc5hy"></path><path d="M-0.04 150.22L149.96 150.22L149.96 146.22L-0.04 146.22L-0.04 150.22Z" id="b4xDokjQA8"></path><path d="M149.96 75.22L149.96 0.22L145.96 0.22L145.96 75.22L149.96 75.22Z" id="c2v8juxWw1"></path><path d="M149.96 75.22L149.96 0.22L145.96 0.22L145.96 75.22L149.96 75.22Z" id="d8fVM7VdEQ"></path><path d="M-0.04 150.22L149.96 150.22L149.96 146.22L-0.04 146.22L-0.04 150.22Z" id="b2bhWqelss"></path><path d="M-0.04 150.22L149.96 150.22L149.96 146.22L-0.04 146.22L-0.04 150.22Z" id="btEBHBTcV"></path><path d="M149.96 75.22L149.96 0.22L145.96 0.22L145.96 75.22L149.96 75.22Z" id="c4vWPP2QC"></path><path d="M149.96 75.22L149.96 0.22L145.96 0.22L145.96 75.22L149.96 75.22Z" id="bHqqfK4Ev"></path><path d="M-0.04 0.22L-0.04 150.22L3.96 150.22L3.96 0.22L-0.04 0.22Z" id="dWPj00YzB"></path><path d="M-0.04 0.22L-0.04 150.22L3.96 150.22L3.96 0.22L-0.04 0.22Z" id="a19PoMxl44"></path><path d="M-0.04 0.22L-0.04 150.22L3.96 150.22L3.96 0.22L-0.04 0.22Z" id="duA5u30xv"></path><path d="M-0.04 0.22L-0.04 150.22L3.96 150.22L3.96 0.22L-0.04 0.22Z" id="a5FDfwr3GH"></path></defs><g><g><g><use xlink:href="#cqsn9BPMM" opacity="1" fill="#fefefe" fill-opacity="1"></use><g><use xlink:href="#cqsn9BPMM" opacity="1" fill-opacity="0" stroke="#fefefe" stroke-width="1" stroke-opacity="1"></use></g></g><g><use xlink:href="#b4h0xqkMPe" opacity="1" fill="#fefefe" fill-opacity="1"></use><g><use xlink:href="#b4h0xqkMPe" opacity="1" fill-opacity="0" stroke="#fefefe" stroke-width="1" stroke-opacity="1"></use></g></g><g><use xlink:href="#b7uLrqm7se" opacity="1" fill="#fefefe" fill-opacity="1"></use><g><use xlink:href="#b7uLrqm7se" opacity="1" fill-opacity="0" stroke="#fefefe" stroke-width="1" stroke-opacity="1"></use></g></g><g><use xlink:href="#ahWkY0A8W" opacity="1" fill="#fefefe" fill-opacity="1"></use><g><use xlink:href="#ahWkY0A8W" opacity="1" fill-opacity="0" stroke="#fefefe" stroke-width="1" stroke-opacity="1"></use></g></g><g><use xlink:href="#a2iPsOGAMo" opacity="1" fill="#fefefe" fill-opacity="1"></use><g><use xlink:href="#a2iPsOGAMo" opacity="1" fill-opacity="0" stroke="#fefefe" stroke-width="1" stroke-opacity="1"></use></g></g><g><use xlink:href="#b9XOXMu38" opacity="1" fill="#fefefe" fill-opacity="1"></use><g><use xlink:href="#b9XOXMu38" opacity="1" fill-opacity="0" stroke="#fefefe" stroke-width="1" stroke-opacity="1"></use></g></g><g><use xlink:href="#j56QcICD5e" opacity="1" fill="#fefefe" fill-opacity="1"></use><g><use xlink:href="#j56QcICD5e" opacity="1" fill-opacity="0" stroke="#fefefe" stroke-width="1" stroke-opacity="1"></use></g></g><g><use xlink:href="#a4fpFa99b" opacity="1" fill="#fefefe" fill-opacity="1"></use><g><use xlink:href="#a4fpFa99b" opacity="1" fill-opacity="0" stroke="#fefefe" stroke-width="1" stroke-opacity="1"></use></g></g><g><use xlink:href="#a1ci1oc5hy" opacity="1" fill="#fefefe" fill-opacity="1"></use><g><use xlink:href="#a1ci1oc5hy" opacity="1" fill-opacity="0" stroke="#fefefe" stroke-width="1" stroke-opacity="1"></use></g></g><g><use xlink:href="#b4xDokjQA8" opacity="1" fill="#fefefe" fill-opacity="1"></use><g><use xlink:href="#b4xDokjQA8" opacity="1" fill-opacity="0" stroke="#fefefe" stroke-width="1" stroke-opacity="1"></use></g></g><g><use xlink:href="#c2v8juxWw1" opacity="1" fill="#fefefe" fill-opacity="1"></use><g><use xlink:href="#c2v8juxWw1" opacity="1" fill-opacity="0" stroke="#fefefe" stroke-width="1" stroke-opacity="1"></use></g></g><g><use xlink:href="#d8fVM7VdEQ" opacity="1" fill="#fefefe" fill-opacity="1"></use><g><use xlink:href="#d8fVM7VdEQ" opacity="1" fill-opacity="0" stroke="#fefefe" stroke-width="1" stroke-opacity="1"></use></g></g><g><use xlink:href="#b2bhWqelss" opacity="1" fill="#fefefe" fill-opacity="1"></use><g><use xlink:href="#b2bhWqelss" opacity="1" fill-opacity="0" stroke="#fefefe" stroke-width="1" stroke-opacity="1"></use></g></g><g><use xlink:href="#btEBHBTcV" opacity="1" fill="#fefefe" fill-opacity="1"></use><g><use xlink:href="#btEBHBTcV" opacity="1" fill-opacity="0" stroke="#fefefe" stroke-width="1" stroke-opacity="1"></use></g></g><g><use xlink:href="#c4vWPP2QC" opacity="1" fill="#fefefe" fill-opacity="1"></use><g><use xlink:href="#c4vWPP2QC" opacity="1" fill-opacity="0" stroke="#fefefe" stroke-width="1" stroke-opacity="1"></use></g></g><g><use xlink:href="#bHqqfK4Ev" opacity="1" fill="#fefefe" fill-opacity="1"></use><g><use xlink:href="#bHqqfK4Ev" opacity="1" fill-opacity="0" stroke="#fefefe" stroke-width="1" stroke-opacity="1"></use></g></g><g><use xlink:href="#dWPj00YzB" opacity="1" fill="#fefefe" fill-opacity="1"></use><g><use xlink:href="#dWPj00YzB" opacity="1" fill-opacity="0" stroke="#fefefe" stroke-width="1" stroke-opacity="1"></use></g></g><g><use xlink:href="#a19PoMxl44" opacity="1" fill="#fefefe" fill-opacity="1"></use><g><use xlink:href="#a19PoMxl44" opacity="1" fill-opacity="0" stroke="#fefefe" stroke-width="1" stroke-opacity="1"></use></g></g><g><use xlink:href="#duA5u30xv" opacity="1" fill="#fefefe" fill-opacity="1"></use><g><use xlink:href="#duA5u30xv" opacity="1" fill-opacity="0" stroke="#fefefe" stroke-width="1" stroke-opacity="1"></use></g></g><g><use xlink:href="#a5FDfwr3GH" opacity="1" fill="#fefefe" fill-opacity="1"></use><g><use xlink:href="#a5FDfwr3GH" opacity="1" fill-opacity="0" stroke="#fefefe" stroke-width="1" stroke-opacity="1"></use></g></g></g></g></svg>